<svg data-logo="logo" xmlns="http://www.w3.org/2000/svg" viewBox="0 0 246 42">
        <g style="opacity: 1;" id="logogram" transform="translate(0, 1) rotate(0)"><path d="M13.0964 20.3536L17.6262 22.4473L17.046 27.6527L8.94876 36.8282C4.2486 33.8023 0.898178 28.8615 0 23.108L13.0964 20.3536Z" fill="#15E3FF"></path><path d="M25.183 25.94L31.2414 36.3789C27.992 38.6605 24.0331 40 19.7612 40C18.3744 40 17.0206 39.8587 15.7133 39.59L17.046 27.6527L20.4765 23.7656L25.183 25.94Z" fill="#348DFC"></path><path d="M39.1022 14.881C39.5332 16.5143 39.763 18.2294 39.763 19.9982C39.763 24.1145 38.5192 27.9403 36.3874 31.1207L25.184 25.9405L22.5551 21.4123L25.8574 17.6692L39.1022 14.881Z" fill="#FD4873"></path><path d="M17.046 27.6524L17.0458 27.6527L17.1686 26.552L17.046 27.6524Z" fill="#FFC700"></path><path d="M20.132 0C26.1505 0.109415 31.5194 2.877 35.1148 7.17842L25.8561 17.6694L20.9792 18.6959L18.519 14.4574L20.132 0Z" fill="#FFC700"></path><path d="M18.519 14.4574L17.9745 19.3269L13.0991 20.353L0.514709 14.5347C2.09964 8.94044 6.05794 4.3436 11.2327 1.9007L18.519 14.4574Z" fill="#00E7B9"></path></g>
        <g style="opacity: 1;" id="logotype" transform="translate(46, 8)"><path fill="#fa7495" d="M17.64 26.38L17.64 26.38Q14.58 26.38 12.31 25.44Q10.05 24.50 8.79 22.65Q7.52 20.80 7.45 18.10L7.45 18.10L12.53 18.10Q12.63 19.39 13.30 20.25Q13.96 21.11 15.07 21.54Q16.19 21.97 17.59 21.97L17.59 21.97Q18.99 21.97 20.02 21.57Q21.06 21.16 21.64 20.43Q22.22 19.69 22.22 18.72L22.22 18.72Q22.22 17.85 21.70 17.26Q21.18 16.67 20.20 16.24Q19.23 15.81 17.83 15.49L17.83 15.49L15.02 14.79Q11.79 14.00 9.96 12.32Q8.14 10.64 8.14 7.87L8.14 7.87Q8.14 5.56 9.38 3.83Q10.61 2.11 12.78 1.15Q14.94 0.19 17.71 0.19L17.71 0.19Q20.53 0.19 22.63 1.16Q24.73 2.13 25.91 3.84Q27.09 5.56 27.12 7.80L27.12 7.80L22.08 7.80Q21.94 6.26 20.77 5.42Q19.60 4.59 17.66 4.59L17.66 4.59Q16.34 4.59 15.40 4.96Q14.46 5.34 13.96 6.00Q13.47 6.67 13.47 7.53L13.47 7.53Q13.47 8.47 14.04 9.09Q14.61 9.71 15.54 10.10Q16.48 10.48 17.55 10.74L17.55 10.74L19.86 11.30Q21.47 11.66 22.85 12.28Q24.23 12.89 25.28 13.79Q26.32 14.69 26.89 15.92Q27.46 17.15 27.46 18.75L27.46 18.75Q27.46 21.06 26.30 22.78Q25.14 24.50 22.94 25.44Q20.73 26.38 17.64 26.38ZM33.96 26L28.83 26L28.83 6.89L33.58 6.89L33.84 11.64L33.46 11.64Q33.91 9.88 34.77 8.77Q35.63 7.66 36.79 7.13Q37.96 6.60 39.24 6.60L39.24 6.60Q41.31 6.60 42.57 7.91Q43.83 9.22 44.43 11.95L44.43 11.95L43.83 11.95Q44.26 10.12 45.23 8.94Q46.19 7.75 47.52 7.18Q48.84 6.60 50.29 6.60L50.29 6.60Q52.06 6.60 53.43 7.37Q54.81 8.14 55.60 9.59Q56.40 11.03 56.40 13.11L56.40 13.11L56.40 26L51.27 26L51.27 14.09Q51.27 12.46 50.39 11.68Q49.51 10.89 48.23 10.89L48.23 10.89Q47.27 10.89 46.56 11.31Q45.85 11.73 45.47 12.48Q45.08 13.23 45.08 14.24L45.08 14.24L45.08 26L40.13 26L40.13 13.95Q40.13 12.55 39.30 11.72Q38.47 10.89 37.15 10.89L37.15 10.89Q36.25 10.89 35.52 11.30Q34.79 11.71 34.38 12.51Q33.96 13.30 33.96 14.45L33.96 14.45L33.96 26ZM63.83 26.38L63.83 26.38Q62.02 26.38 60.57 25.74Q59.13 25.09 58.30 23.82Q57.47 22.55 57.47 20.65L57.47 20.65Q57.47 19.06 58.06 17.98Q58.65 16.91 59.67 16.26Q60.68 15.61 61.97 15.27Q63.26 14.93 64.68 14.79L64.68 14.79Q66.34 14.62 67.36 14.47Q68.37 14.33 68.84 14.01Q69.31 13.70 69.31 13.08L69.31 13.08L69.31 12.99Q69.31 12.17 68.97 11.61Q68.63 11.05 67.96 10.75Q67.30 10.45 66.32 10.45L66.32 10.45Q65.33 10.45 64.60 10.75Q63.86 11.05 63.40 11.54Q62.94 12.04 62.72 12.65L62.72 12.65L58.02 11.87Q58.51 10.21 59.66 9.05Q60.80 7.88 62.50 7.27Q64.20 6.65 66.32 6.65L66.32 6.65Q67.88 6.65 69.33 7.02Q70.78 7.39 71.94 8.16Q73.09 8.93 73.77 10.16Q74.44 11.39 74.44 13.13L74.44 13.13L74.44 26L69.59 26L69.59 23.35L69.42 23.35Q68.95 24.24 68.19 24.91Q67.42 25.59 66.33 25.98Q65.25 26.38 63.83 26.38ZM65.28 22.77L65.28 22.77Q66.49 22.77 67.41 22.29Q68.32 21.81 68.84 20.99Q69.35 20.17 69.35 19.16L69.35 19.16L69.35 17.10Q69.13 17.27 68.66 17.40Q68.20 17.54 67.64 17.64Q67.08 17.75 66.53 17.83Q65.98 17.92 65.55 17.97L65.55 17.97Q64.61 18.10 63.90 18.41Q63.18 18.72 62.79 19.22Q62.39 19.73 62.39 20.51L62.39 20.51Q62.39 21.25 62.77 21.75Q63.14 22.26 63.79 22.51Q64.43 22.77 65.28 22.77ZM81.67 26L76.54 26L76.54 6.89L81.50 6.89L81.50 10.23L81.70 10.23Q82.23 8.45 83.47 7.54Q84.71 6.64 86.32 6.64L86.32 6.64Q86.71 6.64 87.16 6.68Q87.61 6.72 87.97 6.81L87.97 6.81L87.97 11.39Q87.63 11.27 86.98 11.20Q86.33 11.13 85.75 11.13L85.75 11.13Q84.59 11.13 83.65 11.64Q82.71 12.14 82.19 13.04Q81.67 13.93 81.67 15.13L81.67 15.13L81.67 26ZM86.67 6.89L98.00 6.89L98.00 10.81L86.67 10.81L86.67 6.89ZM89.30 20.86L89.30 2.35L94.43 2.35L94.43 20.41Q94.43 21.32 94.83 21.75Q95.23 22.19 96.17 22.19L96.17 22.19Q96.47 22.19 97.00 22.11Q97.52 22.04 97.80 21.97L97.80 21.97L98.53 25.81Q97.68 26.07 96.83 26.17Q95.99 26.27 95.22 26.27L95.22 26.27Q92.35 26.27 90.83 24.87Q89.30 23.47 89.30 20.86L89.30 20.86ZM107.20 16.48L103.71 20.41L103.71 14.24L104.48 14.24L110.73 6.89L116.66 6.89L108.41 16.48L107.20 16.48ZM104.19 26L99.06 26L99.06 0.54L104.19 0.54L104.19 26ZM117.02 26L110.99 26L105.25 17.63L108.68 13.99L117.02 26ZM122.42 26.38L122.42 26.38Q120.61 26.38 119.17 25.74Q117.72 25.09 116.89 23.82Q116.06 22.55 116.06 20.65L116.06 20.65Q116.06 19.06 116.65 17.98Q117.24 16.91 118.26 16.26Q119.28 15.61 120.57 15.27Q121.86 14.93 123.28 14.79L123.28 14.79Q124.93 14.62 125.95 14.47Q126.97 14.33 127.44 14.01Q127.91 13.70 127.91 13.08L127.91 13.08L127.91 12.99Q127.91 12.17 127.56 11.61Q127.22 11.05 126.56 10.75Q125.89 10.45 124.92 10.45L124.92 10.45Q123.92 10.45 123.19 10.75Q122.45 11.05 121.99 11.54Q121.53 12.04 121.31 12.65L121.31 12.65L116.61 11.87Q117.11 10.21 118.25 9.05Q119.40 7.88 121.10 7.27Q122.80 6.65 124.92 6.65L124.92 6.65Q126.47 6.65 127.92 7.02Q129.38 7.39 130.53 8.16Q131.68 8.93 132.36 10.16Q133.03 11.39 133.03 13.13L133.03 13.13L133.03 26L128.18 26L128.18 23.35L128.01 23.35Q127.55 24.24 126.78 24.91Q126.01 25.59 124.92 25.98Q123.84 26.38 122.42 26.38ZM123.87 22.77L123.87 22.77Q125.09 22.77 126.00 22.29Q126.92 21.81 127.43 20.99Q127.94 20.17 127.94 19.16L127.94 19.16L127.94 17.10Q127.72 17.27 127.26 17.40Q126.80 17.54 126.23 17.64Q125.67 17.75 125.12 17.83Q124.57 17.92 124.15 17.97L124.15 17.97Q123.21 18.10 122.49 18.41Q121.77 18.72 121.38 19.22Q120.99 19.73 120.99 20.51L120.99 20.51Q120.99 21.25 121.36 21.75Q121.74 22.26 122.38 22.51Q123.02 22.77 123.87 22.77ZM140.47 26.38L140.47 26.38Q138.65 26.38 137.21 25.74Q135.77 25.09 134.94 23.82Q134.11 22.55 134.11 20.65L134.11 20.65Q134.11 19.06 134.70 17.98Q135.29 16.91 136.30 16.26Q137.32 15.61 138.61 15.27Q139.90 14.93 141.32 14.79L141.32 14.79Q142.98 14.62 143.99 14.47Q145.01 14.33 145.48 14.01Q145.95 13.70 145.95 13.08L145.95 13.08L145.95 12.99Q145.95 12.17 145.61 11.61Q145.27 11.05 144.60 10.75Q143.93 10.45 142.96 10.45L142.96 10.45Q141.97 10.45 141.23 10.75Q140.50 11.05 140.04 11.54Q139.58 12.04 139.35 12.65L139.35 12.65L134.66 11.87Q135.15 10.21 136.30 9.05Q137.44 7.88 139.14 7.27Q140.84 6.65 142.96 6.65L142.96 6.65Q144.52 6.65 145.97 7.02Q147.42 7.39 148.57 8.16Q149.73 8.93 150.40 10.16Q151.08 11.39 151.08 13.13L151.08 13.13L151.08 26L146.22 26L146.22 23.35L146.05 23.35Q145.59 24.24 144.82 24.91Q144.05 25.59 142.97 25.98Q141.88 26.38 140.47 26.38ZM141.92 22.77L141.92 22.77Q143.13 22.77 144.05 22.29Q144.96 21.81 145.47 20.99Q145.99 20.17 145.99 19.16L145.99 19.16L145.99 17.10Q145.76 17.27 145.30 17.40Q144.84 17.54 144.28 17.64Q143.71 17.75 143.17 17.83Q142.62 17.92 142.19 17.97L142.19 17.97Q141.25 18.10 140.53 18.41Q139.82 18.72 139.42 19.22Q139.03 19.73 139.03 20.51L139.03 20.51Q139.03 21.25 139.41 21.75Q139.78 22.26 140.42 22.51Q141.06 22.77 141.92 22.77ZM151.33 6.89L162.66 6.89L162.66 10.81L151.33 10.81L151.33 6.89ZM153.96 20.86L153.96 2.35L159.09 2.35L159.09 20.41Q159.09 21.32 159.49 21.75Q159.89 22.19 160.83 22.19L160.83 22.19Q161.13 22.19 161.65 22.11Q162.18 22.04 162.46 21.97L162.46 21.97L163.19 25.81Q162.34 26.07 161.49 26.17Q160.65 26.27 159.88 26.27L159.88 26.27Q157.01 26.27 155.49 24.87Q153.96 23.47 153.96 20.86L153.96 20.86ZM168.85 14.94L168.85 14.94L168.85 26L163.72 26L163.72 0.54L168.75 0.54L168.75 11.66L168.34 11.66Q169.09 9.27 170.62 7.96Q172.15 6.65 174.57 6.65L174.57 6.65Q176.56 6.65 178.03 7.52Q179.51 8.38 180.32 10.00Q181.14 11.61 181.14 13.85L181.14 13.85L181.14 26L176.01 26L176.01 14.74Q176.01 12.96 175.09 11.95Q174.18 10.94 172.56 10.94L172.56 10.94Q171.48 10.94 170.63 11.41Q169.79 11.88 169.32 12.77Q168.85 13.66 168.85 14.94ZM188.57 26.38L188.57 26.38Q186.76 26.38 185.31 25.74Q183.87 25.09 183.04 23.82Q182.21 22.55 182.21 20.65L182.21 20.65Q182.21 19.06 182.80 17.98Q183.39 16.91 184.41 16.26Q185.42 15.61 186.71 15.27Q188.00 14.93 189.42 14.79L189.42 14.79Q191.08 14.62 192.10 14.47Q193.11 14.33 193.58 14.01Q194.05 13.70 194.05 13.08L194.05 13.08L194.05 12.99Q194.05 12.17 193.71 11.61Q193.37 11.05 192.70 10.75Q192.04 10.45 191.06 10.45L191.06 10.45Q190.07 10.45 189.34 10.75Q188.60 11.05 188.14 11.54Q187.68 12.04 187.46 12.65L187.46 12.65L182.76 11.87Q183.25 10.21 184.40 9.05Q185.54 7.88 187.24 7.27Q188.94 6.65 191.06 6.65L191.06 6.65Q192.62 6.65 194.07 7.02Q195.52 7.39 196.68 8.16Q197.83 8.93 198.51 10.16Q199.18 11.39 199.18 13.13L199.18 13.13L199.18 26L194.33 26L194.33 23.35L194.16 23.35Q193.69 24.24 192.93 24.91Q192.16 25.59 191.07 25.98Q189.99 26.38 188.57 26.38ZM190.02 22.77L190.02 22.77Q191.23 22.77 192.15 22.29Q193.06 21.81 193.57 20.99Q194.09 20.17 194.09 19.16L194.09 19.16L194.09 17.10Q193.87 17.27 193.40 17.40Q192.94 17.54 192.38 17.64Q191.81 17.75 191.27 17.83Q190.72 17.92 190.29 17.97L190.29 17.97Q189.35 18.10 188.64 18.41Q187.92 18.72 187.52 19.22Q187.13 19.73 187.13 20.51L187.13 20.51Q187.13 21.25 187.51 21.75Q187.88 22.26 188.52 22.51Q189.17 22.77 190.02 22.77Z"></path></g>
        
      </svg>